M48
; DRILL file {KiCad 5.1.6} date Fri Jul 10 11:13:21 2020
; FORMAT={-:-/ absolute / inch / decimal}
; #@! TF.CreationDate,2020-07-10T11:13:21+01:00
; #@! TF.GenerationSoftware,Kicad,Pcbnew,5.1.6
FMAT,2
INCH
T1C0.0157
T2C0.0315
T3C0.0394
T4C0.0787
T5C0.1181
%
G90
G05
T1
X5.21Y-3.615
X5.285Y-4.28
X5.59Y-3.8
X5.96Y-3.325
X5.96Y-3.43
X6.15Y-3.33
X6.495Y-3.33
X6.5276Y-3.1398
X6.735Y-3.24
X7.115Y-3.38
X7.128Y-3.2303
X7.33Y-3.6
X7.705Y-3.4975
T2
X6.44Y-4.415
X6.6321Y-4.415
X5.4916Y-4.475
X5.59Y-4.475
X6.3416Y-4.615
X6.44Y-4.615
X6.6341Y-4.615
X6.7325Y-4.615
X5.69Y-3.915
X5.69Y-4.215
X5.79Y-3.915
X5.79Y-4.215
X5.89Y-3.915
X5.89Y-4.215
X5.99Y-3.915
X5.99Y-4.215
X6.09Y-3.915
X6.09Y-4.215
X6.19Y-3.915
X6.19Y-4.215
X6.29Y-3.915
X6.29Y-4.215
X6.39Y-3.915
X6.39Y-4.215
X6.49Y-3.915
X6.49Y-4.215
X6.59Y-3.915
X6.59Y-4.215
X6.69Y-3.915
X6.69Y-4.215
X6.79Y-3.915
X6.79Y-4.215
X6.89Y-3.915
X6.89Y-4.215
X6.99Y-3.915
X6.99Y-4.215
T3
X6.165Y-2.86
X6.265Y-2.86
X4.76Y-3.515
X4.86Y-3.515
X4.96Y-3.515
X5.06Y-3.515
X5.16Y-3.515
X5.26Y-3.515
X5.36Y-3.515
X7.075Y-4.7691
X7.075Y-5.34
X7.1734Y-5.34
X7.2719Y-4.7691
X7.2719Y-5.34
X5.04Y-4.94
X5.04Y-5.04
X5.04Y-5.14
X5.04Y-5.24
X4.9803Y-3.8799
X4.9803Y-3.9799
X4.9803Y-4.0799
X4.9803Y-4.1799
X4.9803Y-4.2799
T5
X4.5748Y-3.0846
X7.8445Y-5.3858
X4.5748Y-5.3858
X7.8445Y-3.0866
T4
G00X6.953Y-5.0546
M15
G01X6.953Y-5.0349
M16
G05
G00X7.3939Y-5.0546
M15
G01X7.3939Y-5.0349
M16
G05
T0
M30
